<svg width="16" height="16" viewBox="0 0 16 16" fill="none" xmlns="http://www.w3.org/2000/svg">
<path d="M15.6002 12.5422C15.6002 13.4489 15.3077 14.1185 14.7228 14.5511C14.1436 14.9837 13.3694 15.2 12.4002 15.2C11.431 15.2 10.654 14.9837 10.069 14.5511C9.4898 14.1185 9.2002 13.443 9.2002 12.5244V11.4755C9.2002 10.8711 9.33783 10.3704 9.6131 9.97332C9.8941 9.57036 10.2755 9.27406 10.7572 9.08443C11.2389 8.8948 11.7866 8.79999 12.4002 8.79999C13.0138 8.79999 13.5586 8.8948 14.0346 9.08443C14.5163 9.27406 14.8977 9.5674 15.1787 9.96443C15.4597 10.3615 15.6002 10.8592 15.6002 11.4578V12.5422ZM11.5228 12.7111C11.5228 12.9541 11.6002 13.1407 11.755 13.2711C11.9156 13.4015 12.1307 13.4667 12.4002 13.4667C12.6697 13.4667 12.8819 13.4015 13.0368 13.2711C13.1973 13.1348 13.2776 12.9452 13.2776 12.7022V11.2978C13.2776 11.0548 13.1973 10.8681 13.0368 10.7378C12.8819 10.6015 12.6697 10.5333 12.4002 10.5333C12.1307 10.5333 11.9156 10.5985 11.755 10.7289C11.6002 10.8592 11.5228 11.0459 11.5228 11.2889V12.7111Z" fill="#6A7682"/>
<circle cx="8.0002" cy="8.00001" r="0.8" fill="#D93E22"/>
<path fill-rule="evenodd" clip-rule="evenodd" d="M6.6999 8.00001L6.3999 8.00001V8.00001H6.6999C6.6999 8.00001 6.6999 8.00001 6.6999 8.00001ZM8 9.3V9.60001C8.88361 9.59995 9.5999 8.88363 9.5999 8.00001V8H9.2999C9.2999 8.71794 8.71793 9.29995 8 9.3Z" fill="#D93E22"/>
<path fill-rule="evenodd" clip-rule="evenodd" d="M0 16V8.20001H6.41238C6.43936 8.4164 6.50956 8.61937 6.61405 8.80001H1.05116C0.982946 8.80001 0.924031 8.82439 0.874419 8.87316C0.824806 8.92192 0.8 8.97982 0.8 9.04687V10.4274C0.8 10.4945 0.824806 10.5524 0.874419 10.6012C0.924031 10.6499 0.982946 10.6743 1.05116 10.6743H2.75349V13.3257H1.05116C0.982946 13.3257 0.924031 13.3501 0.874419 13.3989C0.824806 13.4476 0.8 13.5055 0.8 13.5726V14.9532C0.8 15.0202 0.824806 15.0781 0.874419 15.1269C0.924031 15.1756 0.982946 15.2 1.05116 15.2H6.94884C7.01705 15.2 7.07597 15.1756 7.12558 15.1269C7.17519 15.0781 7.2 15.0202 7.2 14.9532V13.5726C7.2 13.5055 7.17519 13.4476 7.12558 13.3989C7.07597 13.3501 7.01705 13.3257 6.94884 13.3257H5.26512V10.6743H6.94884C7.01705 10.6743 7.07597 10.6499 7.12558 10.6012C7.17519 10.5524 7.2 10.4945 7.2 10.4274V9.38596C7.38064 9.49046 7.58361 9.56065 7.8 9.58763V16H8V16H0Z" fill="#6B6FB0"/>
<path fill-rule="evenodd" clip-rule="evenodd" d="M0 0H7.8V6.41238C7.5191 6.44741 7.26082 6.55525 7.04463 6.71642L4.86187 3.77143L6.88427 1.12914C6.91271 1.09257 6.92693 1.0499 6.92693 1.00114C6.92693 0.946286 6.90702 0.900572 6.8672 0.864C6.83307 0.821333 6.7904 0.8 6.7392 0.8H4.68267C4.55751 0.8 4.45227 0.85181 4.36693 0.955429L3.01867 2.76571V1.04686C3.01867 0.97981 2.99591 0.921905 2.9504 0.873143C2.90489 0.824381 2.85084 0.8 2.78827 0.8H1.0304C0.967822 0.8 0.913778 0.824381 0.868267 0.873143C0.822756 0.921905 0.8 0.97981 0.8 1.04686V6.95314C0.8 7.02019 0.822756 7.0781 0.868267 7.12686C0.913778 7.17562 0.967822 7.2 1.0304 7.2H2.78827C2.85084 7.2 2.90489 7.17562 2.9504 7.12686C2.99591 7.0781 3.01867 7.02019 3.01867 6.95314V5.088L4.50347 7.05371C4.57742 7.15124 4.67982 7.2 4.81067 7.2H6.61405C6.50955 7.38064 6.43936 7.58361 6.41238 7.8H0V0Z" fill="#6B6FB0"/>
<path fill-rule="evenodd" clip-rule="evenodd" d="M8.2002 0V6.41238C8.41658 6.43936 8.61955 6.50956 8.8002 6.61405V5.63657C8.8002 5.55733 8.81552 5.49029 8.84617 5.43543C8.87682 5.38057 8.90747 5.34095 8.93813 5.31657L11.8439 2.67429H9.24157C9.17414 2.67429 9.1159 2.6499 9.06686 2.60114C9.01782 2.55238 8.9933 2.49448 8.9933 2.42743V1.04686C8.9933 0.97981 9.01782 0.921905 9.06686 0.873143C9.1159 0.824381 9.17414 0.8 9.24157 0.8H14.7588C14.8262 0.8 14.8845 0.824381 14.9335 0.873143C14.9826 0.921905 15.0071 0.97981 15.0071 1.04686V2.35429C15.0071 2.48229 14.9672 2.58286 14.8876 2.656L12.0186 5.32571H14.9519C15.0194 5.32571 15.0776 5.3501 15.1266 5.39886C15.1757 5.44762 15.2002 5.50552 15.2002 5.57257V6.95314C15.2002 7.02019 15.1757 7.0781 15.1266 7.12686C15.0776 7.17562 15.0194 7.2 14.9519 7.2H9.38614C9.49064 7.38064 9.56083 7.58361 9.58782 7.8H16V8H16.0002V0H8.2002Z" fill="#6B6FB0"/>
</svg>
