<svg width="63" height="16" viewBox="0 0 63 16" fill="none" xmlns="http://www.w3.org/2000/svg">
<path fill-rule="evenodd" clip-rule="evenodd" d="M16.3999 16H31.5999V11.1752C30.0214 10.9784 28.7999 9.63185 28.7999 8C28.7999 6.36815 30.0214 5.0216 31.5999 4.82476V0H16.3999V16ZM29.9034 10.6514C30.0382 10.6514 30.1547 10.7002 30.2528 10.7977C30.3509 10.8952 30.3999 11.011 30.3999 11.1451V13.9063C30.3999 14.0404 30.3509 14.1562 30.2528 14.2537C30.1547 14.3512 30.0382 14.4 29.9034 14.4H18.0965C17.9616 14.4 17.8451 14.3512 17.747 14.2537C17.6489 14.1562 17.5999 14.0404 17.5999 13.9063V11.2731C17.5999 11.1147 17.6306 10.9806 17.6919 10.8709C17.7532 10.7611 17.8145 10.6819 17.8758 10.6331L23.6873 5.34857H18.4827C18.3478 5.34857 18.2313 5.29981 18.1332 5.20229C18.0352 5.10476 17.9861 4.98895 17.9861 4.85486V2.09371C17.9861 1.95962 18.0352 1.84381 18.1332 1.74629C18.2313 1.64876 18.3478 1.6 18.4827 1.6H29.5171C29.652 1.6 29.7685 1.64876 29.8666 1.74629C29.9647 1.84381 30.0137 1.95962 30.0137 2.09371V4.70857C30.0137 4.96457 29.934 5.16571 29.7746 5.312L24.0367 10.6514H29.9034Z" fill="#6A7682"/>
<path d="M62.4001 9.08445C62.4001 10.8978 61.8152 12.237 60.6453 13.1022C59.4868 13.9674 57.9384 14.4 56.0001 14.4C54.0617 14.4 52.5076 13.9674 51.3377 13.1022C50.1793 12.237 49.6001 10.8859 49.6001 9.0489V6.95112C49.6001 5.74223 49.8754 4.74075 50.4259 3.94667C50.9879 3.14075 51.7506 2.54815 52.7141 2.1689C53.6775 1.78964 54.7729 1.60001 56.0001 1.60001C57.2273 1.60001 58.3169 1.78964 59.2689 2.1689C60.2324 2.54815 60.9951 3.13482 61.5571 3.92889C62.1191 4.72297 62.4001 5.71852 62.4001 6.91556V9.08445ZM54.2453 9.42223C54.2453 9.90815 54.4001 10.2815 54.7098 10.5422C55.0309 10.803 55.461 10.9333 56.0001 10.9333C56.5392 10.9333 56.9635 10.803 57.2732 10.5422C57.5944 10.2696 57.7549 9.89038 57.7549 9.40445V6.59556C57.7549 6.10964 57.5944 5.7363 57.2732 5.47556C56.9635 5.20297 56.5392 5.06667 56.0001 5.06667C55.461 5.06667 55.0309 5.19704 54.7098 5.45778C54.4001 5.71852 54.2453 6.09186 54.2453 6.57778V9.42223Z" fill="#6A7682"/>
<path fill-rule="evenodd" clip-rule="evenodd" d="M0 0H15.6V16H0V0ZM14.3317 13.76C14.3772 13.8331 14.4 13.9124 14.4 13.9977C14.4 14.1074 14.3602 14.205 14.2805 14.2903C14.2123 14.3634 14.1269 14.4 14.0245 14.4H9.62133C9.35964 14.4 9.15484 14.3025 9.00693 14.1074L6.03733 10.176V13.9063C6.03733 14.0404 5.99182 14.1562 5.9008 14.2537C5.80978 14.3512 5.70169 14.4 5.57653 14.4H2.0608C1.93564 14.4 1.82756 14.3512 1.73653 14.2537C1.64551 14.1562 1.6 14.0404 1.6 13.9063V2.09371C1.6 1.95962 1.64551 1.84381 1.73653 1.74629C1.82756 1.64876 1.93564 1.6 2.0608 1.6H5.57653C5.70169 1.6 5.80978 1.64876 5.9008 1.74629C5.99182 1.84381 6.03733 1.95962 6.03733 2.09371V5.53143L8.73387 1.91086C8.90453 1.70362 9.11502 1.6 9.36533 1.6H13.4784C13.5808 1.6 13.6661 1.64267 13.7344 1.728C13.814 1.80114 13.8539 1.89257 13.8539 2.00229C13.8539 2.09981 13.8254 2.18514 13.7685 2.25829L9.72373 7.54286L14.3317 13.76Z" fill="#6A7682"/>
<circle cx="31.9999" cy="7.99999" r="1.6" fill="#6A7682"/>
<path fill-rule="evenodd" clip-rule="evenodd" d="M32.3999 11.1753C33.9784 10.9784 35.1999 9.63186 35.1999 8.00001C35.1999 6.36816 33.9784 5.02161 32.3999 4.82477V5.63317C33.5351 5.82352 34.4001 6.81076 34.4001 8.00002C34.4001 9.18929 33.5351 10.1765 32.3999 10.3669V11.1753Z" fill="#6A7682"/>
<path fill-rule="evenodd" clip-rule="evenodd" d="M32.3999 16H47.9999V0H32.3999V4.01975C32.8227 4.06173 33.2262 4.16956 33.5999 4.33284V2.09371C33.5999 1.95962 33.6495 1.84381 33.7487 1.74629C33.848 1.64876 33.9658 1.6 34.1022 1.6H45.8976C46.034 1.6 46.1518 1.64876 46.2511 1.74629C46.3503 1.84381 46.3999 1.95962 46.3999 2.09371V4.85486C46.3999 4.98895 46.3503 5.10476 46.2511 5.20229C46.1518 5.29981 46.034 5.34857 45.8976 5.34857H42.5301V10.6514H45.8976C46.034 10.6514 46.1518 10.7002 46.2511 10.7977C46.3503 10.8952 46.3999 11.011 46.3999 11.1451V13.9063C46.3999 14.0404 46.3503 14.1562 46.2511 14.2537C46.1518 14.3512 46.034 14.4 45.8976 14.4H34.1022C33.9658 14.4 33.848 14.3512 33.7487 14.2537C33.6495 14.1562 33.5999 14.0404 33.5999 13.9063V11.6672C33.2262 11.8304 32.8227 11.9383 32.3999 11.9803V16ZM37.5069 10.6514H34.9949C35.6203 9.9456 35.9999 9.01714 35.9999 8C35.9999 6.98286 35.6203 6.0544 34.9949 5.34857H37.5069V10.6514Z" fill="#6A7682"/>
</svg>
