<svg width="56" height="16" viewBox="0 0 56 16" fill="none" xmlns="http://www.w3.org/2000/svg">
<path fill-rule="evenodd" clip-rule="evenodd" d="M49.9905 11.7251C48.9929 12.7648 47.7635 13.2847 46.3022 13.2847C44.8409 13.2847 43.6045 12.7648 42.5928 11.7251C41.5952 10.6853 41.0964 9.42075 41.0964 7.93138C41.0964 6.45607 41.5952 5.19854 42.5928 4.15879C43.6045 3.11904 44.8409 2.59917 46.3022 2.59917C47.7635 2.59917 48.9929 3.11904 49.9905 4.15879C51.0021 5.19854 51.5079 6.45607 51.5079 7.93138C51.5079 9.42075 51.0021 10.6853 49.9905 11.7251ZM49.6682 11.4189L49.6661 11.4211C48.7526 12.3732 47.6382 12.8456 46.2946 12.8456C44.9515 12.8456 43.8292 12.3734 42.9012 11.4201C41.9855 10.4653 41.528 9.31125 41.528 7.93143C41.528 6.56688 41.9847 5.41945 42.9011 4.46381C43.8292 3.51053 44.9515 3.03829 46.2946 3.03829C47.6382 3.03829 48.7526 3.51075 49.6661 4.46283L49.6682 4.46503C50.5986 5.42126 51.0613 6.56831 51.0613 7.93143C51.0613 9.30982 50.5978 10.4635 49.6682 11.4189Z" fill="url(#paint0_linear_1124_1204)"/>
<path fill-rule="evenodd" clip-rule="evenodd" d="M33.433 5.10014C33.0289 4.61521 32.5333 4.28156 31.954 4.10759V1.81589H34.8007V15.6417H38.1658V9.06529C38.3856 10.8611 39.1523 12.4065 40.4664 13.6835C42.0421 15.229 43.9947 16 46.2946 16C48.5945 16 50.5471 15.229 52.1229 13.6835C53.701 12.1499 54.4897 10.2292 54.4897 7.9525C54.4897 6.47438 54.1341 5.11296 53.42 3.87745C52.9655 3.07538 52.3995 2.3875 51.7233 1.81589H55.5856V0.0314602H11.381V4.42918L9.70413 6.23758L4.99884 0.0314602H2.06713L2.04437 0V0.0314602H0V1.81589H2.27445L7.27089 8.72041L0.915058 15.6417H5.26589L11.381 9.12528V15.6417H14.7461V3.2069H22.9109L14.7912 13.1066V15.6417H27.4297V12.4873H19.562L27.7037 2.5453V1.81589H30.0853V4.1074C29.5052 4.2809 29.0046 4.61309 28.5898 5.09469L28.5853 5.10014C28.0934 5.6904 27.8513 6.39594 27.8513 7.19377C27.8513 8.02204 28.1713 8.74947 28.7807 9.35893C29.3957 9.97391 30.1462 10.2884 31.0091 10.2884C31.8721 10.2884 32.6225 9.97391 33.2375 9.35893C33.847 8.74947 34.167 8.02204 34.167 7.19377C34.167 6.39594 33.9248 5.6904 33.433 5.10014ZM39.1483 3.87726C38.6238 4.79237 38.2971 5.78506 38.1658 6.8511V1.81589H40.8748C40.1917 2.39107 39.6164 3.07758 39.1503 3.87378L39.1483 3.87726ZM55.1541 1.37677V0.470499L11.8277 0.47057V4.60145L9.67794 6.91981L4.78832 0.47057H0.446678V1.37684H2.49104V1.35576L7.84434 8.75341L1.92199 15.2027H5.08338L11.8277 8.01576V15.2027H14.3146V1.37684H15.1114V2.76785H23.7947V2.83107L15.2379 13.2637V15.2027H26.9982V12.9265H18.6943V12.8632L27.2722 2.38848V1.37684L30.532 1.37681V4.4539C29.8997 4.5663 29.3658 4.87542 28.9302 5.38124C28.5087 5.88706 28.2979 6.49124 28.2979 7.19377C28.2979 7.8963 28.5649 8.51453 29.0988 9.04845C29.6327 9.58238 30.272 9.84934 31.0167 9.84934C31.7614 9.84934 32.4007 9.58238 32.9346 9.04845C33.4685 8.51453 33.7355 7.8963 33.7355 7.19377C33.7355 6.49124 33.5247 5.88706 33.1032 5.38124C32.6817 4.87542 32.1548 4.5663 31.5225 4.4539V1.37681L35.2474 1.37688V15.2027H37.7344V1.37688L42.2767 1.37677C41.1245 2.03714 40.2112 2.94341 39.5368 4.09556C38.8764 5.24771 38.5462 6.53335 38.5462 7.95246C38.5462 10.1163 39.2909 11.9218 40.7803 13.369C42.2697 14.8302 44.1103 15.5609 46.3022 15.5609C48.4941 15.5609 50.3347 14.8302 51.8241 13.369C53.3135 11.9218 54.0581 10.1163 54.0581 7.95246C54.0581 6.5474 53.7209 5.26176 53.0465 4.09556C52.3861 2.92936 51.4798 2.02309 50.3277 1.37677H55.1541Z" fill="url(#paint1_linear_1124_1204)"/>
<defs>
<linearGradient id="paint0_linear_1124_1204" x1="0" y1="8" x2="55.5856" y2="8" gradientUnits="userSpaceOnUse">
<stop stop-color="#DE492E"/>
<stop offset="1" stop-color="#585CA4"/>
</linearGradient>
<linearGradient id="paint1_linear_1124_1204" x1="0" y1="8" x2="55.5856" y2="8" gradientUnits="userSpaceOnUse">
<stop stop-color="#DE492E"/>
<stop offset="1" stop-color="#585CA4"/>
</linearGradient>
</defs>
</svg>
